<svg xmlns="http://www.w3.org/2000/svg" viewBox="3.44500732421875 125.03500366210938 568.1100158691406 310.8199996948242"> <svg xmlns="http://www.w3.org/2000/svg" xmlns:xlink="http://www.w3.org/1999/xlink" version="1.1" id="Layer_1" x="97.52006530761719" y="195.03500366210938" viewBox="125 360.29998779296875 950 279.4000244140625" xml:space="preserve" height="111.74767973172874" width="379.9580993652344" preserveAspectRatio="xMinYMin" enable-background="new 0 0 1200 1000" style="overflow: visible;"><polygon class="st0" points="125,629.6 125,639.7 440.4,639.7 440.4,474 563.8,379.2 567.8,376.1 585.4,389.6 586.3,388.9    586.6,388.6 595,381.9 567.8,360.3 562.9,364.1 560.4,366.1 427.9,467.9 427.9,629.6  " style="fill: #333333;"></polygon><rect x="607" y="494.4" class="st0" width="25.1" height="25.1" style="fill: #333333;"></rect><rect x="567.9" y="494.4" class="st0" width="25.1" height="25.1" style="fill: #333333;"></rect><polygon class="st1" points="472.2,487.5 472.2,639.7 727.8,639.7 727.8,487.5 722.4,483.2 615,397.8 605,405.7 632.9,428    709.9,489.4 715.3,493.7 715.3,629.6 484.7,629.6 484.7,493.7 594.3,406.3 596,404.9 600,401.7 600.5,401.4 632.2,376.1    636.2,379.2 759.6,474 759.6,639.7 1075,639.7 1075,629.6 772.1,629.6 772.1,467.9 639.6,366.1 637.1,364.1 632.2,360.3 604,382.7    600,385.9 590.5,393.4 590,393.8 586,397  " style="fill: #00C3FF;"></polygon><path class="st0" d="M607,530.8v25.1h25.1v-25.1H607z" style="fill: #333333;"></path><rect x="607" y="530.8" class="st0" width="25.1" height="25.1" style="fill: #333333;"></rect><rect x="567.9" y="530.8" class="st0" width="25.1" height="25.1" style="fill: #333333;"></rect></svg> <svg y="315.0350036621094" viewBox="2.809999942779541 12.199999809265137 428.1100158691406 50.81999969482422" x="73.44500732421875" height="50.81999969482422" width="428.1100158691406" style="overflow: visible;"><g fill="#00C3FF" fill-opacity="1" style=""><path d="M22.57 52.60L22.57 52.60Q18.31 52.60 14.69 51.16Q11.07 49.73 8.42 47.14Q5.78 44.55 4.29 41.04Q2.81 37.53 2.81 33.37L2.81 33.37Q2.81 29.21 4.29 25.70Q5.78 22.19 8.45 19.60Q11.12 17.01 14.74 15.58Q18.36 14.15 22.63 14.15L22.63 14.15Q26.73 14.15 30.35 15.52Q33.97 16.90 36.45 19.66L36.45 19.66L33.91 22.19Q31.59 19.82 28.78 18.77Q25.97 17.71 22.73 17.71L22.73 17.71Q19.33 17.71 16.42 18.87Q13.50 20.03 11.34 22.17Q9.18 24.30 7.96 27.13Q6.75 29.97 6.75 33.37L6.75 33.37Q6.75 36.77 7.96 39.61Q9.18 42.44 11.34 44.58Q13.50 46.71 16.42 47.87Q19.33 49.03 22.73 49.03L22.73 49.03Q25.97 49.03 28.78 47.95Q31.59 46.87 33.91 44.50L33.91 44.50L36.45 47.03Q33.97 49.79 30.35 51.19Q26.73 52.60 22.57 52.60ZM48.01 52.27L44.17 52.27L44.17 23.92L47.84 23.92L47.84 31.64L47.47 30.29Q48.65 27.05 51.46 25.35Q54.27 23.65 58.43 23.65L58.43 23.65L58.43 27.38Q58.21 27.38 58.00 27.35Q57.78 27.32 57.56 27.32L57.56 27.32Q53.08 27.32 50.54 30.05Q48.01 32.78 48.01 37.80L48.01 37.80L48.01 52.27ZM76.68 52.54L76.68 52.54Q72.58 52.54 69.31 50.68Q66.04 48.82 64.15 45.55Q62.26 42.28 62.26 38.07L62.26 38.07Q62.26 33.80 64.15 30.56Q66.04 27.32 69.28 25.49Q72.52 23.65 76.68 23.65L76.68 23.65Q80.89 23.65 84.16 25.49Q87.43 27.32 89.29 30.56Q91.15 33.80 91.15 38.07L91.15 38.07Q91.15 42.28 89.29 45.55Q87.43 48.82 84.13 50.68Q80.84 52.54 76.68 52.54ZM76.68 49.14L76.68 49.14Q79.76 49.14 82.13 47.76Q84.51 46.39 85.89 43.88Q87.26 41.36 87.26 38.07L87.26 38.07Q87.26 34.72 85.89 32.24Q84.51 29.75 82.13 28.38Q79.76 27 76.73 27L76.73 27Q73.71 27 71.33 28.38Q68.96 29.75 67.55 32.24Q66.15 34.72 66.15 38.07L66.15 38.07Q66.15 41.36 67.55 43.88Q68.96 46.39 71.33 47.76Q73.71 49.14 76.68 49.14ZM107.57 52.27L103.95 52.27L93.26 23.92L96.93 23.92L106.65 50.22L104.98 50.22L114.97 23.92L118.26 23.92L128.14 50.22L126.47 50.22L136.35 23.92L139.86 23.92L129.11 52.27L125.50 52.27L115.99 27.54L117.13 27.54L107.57 52.27ZM156.11 52.54L156.11 52.54Q152.06 52.54 148.85 50.71Q145.64 48.87 143.80 45.60Q141.97 42.34 141.97 38.07L141.97 38.07Q141.97 33.75 143.80 30.51Q145.64 27.27 148.85 25.46Q152.06 23.65 156.11 23.65L156.11 23.65Q159.84 23.65 162.78 25.33Q165.73 27 167.48 30.21Q169.24 33.43 169.24 38.07L169.24 38.07Q169.24 42.66 167.51 45.90Q165.78 49.14 162.84 50.84Q159.89 52.54 156.11 52.54ZM156.38 49.14L156.38 49.14Q159.41 49.14 161.81 47.76Q164.21 46.39 165.59 43.88Q166.97 41.36 166.97 38.07L166.97 38.07Q166.97 34.72 165.59 32.24Q164.21 29.75 161.81 28.38Q159.41 27 156.38 27L156.38 27Q153.41 27 151.04 28.38Q148.66 29.75 147.26 32.24Q145.85 34.72 145.85 38.07L145.85 38.07Q145.85 41.36 147.26 43.88Q148.66 46.39 151.04 47.76Q153.41 49.14 156.38 49.14ZM170.75 52.27L167.08 52.27L167.08 43.74L167.45 38.02L166.91 32.29L166.91 12.20L170.75 12.20L170.75 52.27ZM211.03 42.34L178.25 42.34L178.25 39.53L198.29 14.47L202.61 14.47L182.74 39.53L180.63 38.88L211.03 38.88L211.03 42.34ZM203.47 52.27L199.58 52.27L199.58 42.34L199.69 38.88L199.69 30.13L203.47 30.13L203.47 52.27ZM221.51 36.23L221.51 32.78L241.49 32.78L241.49 36.23L221.51 36.23ZM221.94 17.93L221.94 52.27L217.94 52.27L217.94 14.47L243.86 14.47L243.86 17.93L221.94 17.93ZM255.15 52.27L251.32 52.27L251.32 12.20L255.15 12.20L255.15 52.27ZM269.68 52.27L265.84 52.27L265.84 23.92L269.68 23.92L269.68 52.27ZM267.79 17.66L267.79 17.66Q266.60 17.66 265.79 16.85Q264.98 16.04 264.98 14.90L264.98 14.90Q264.98 13.77 265.79 12.99Q266.60 12.20 267.79 12.20L267.79 12.20Q268.97 12.20 269.78 12.96Q270.59 13.72 270.59 14.85L270.59 14.85Q270.59 16.04 269.81 16.85Q269.03 17.66 267.79 17.66ZM295.00 52.54L295.00 52.54Q291.33 52.54 288.36 50.84Q285.39 49.14 283.64 45.93Q281.88 42.71 281.88 38.07L281.88 38.07Q281.88 33.43 283.61 30.21Q285.34 27 288.31 25.33Q291.28 23.65 295.00 23.65L295.00 23.65Q299.05 23.65 302.27 25.46Q305.48 27.27 307.31 30.54Q309.15 33.80 309.15 38.07L309.15 38.07Q309.15 42.39 307.31 45.63Q305.48 48.87 302.27 50.71Q299.05 52.54 295.00 52.54ZM284.20 62.75L280.37 62.75L280.37 23.92L284.04 23.92L284.04 32.45L283.66 38.12L284.20 43.85L284.20 62.75ZM294.73 49.14L294.73 49.14Q297.76 49.14 300.13 47.76Q302.51 46.39 303.91 43.88Q305.32 41.36 305.32 38.07L305.32 38.07Q305.32 34.78 303.91 32.29Q302.51 29.81 300.13 28.40Q297.76 27 294.73 27L294.73 27Q291.71 27 289.31 28.40Q286.90 29.81 285.53 32.29Q284.15 34.78 284.15 38.07L284.15 38.07Q284.15 41.36 285.53 43.88Q286.90 46.39 289.31 47.76Q291.71 49.14 294.73 49.14ZM331.61 52.54L331.61 52.54Q327.94 52.54 324.97 50.84Q322.00 49.14 320.25 45.93Q318.49 42.71 318.49 38.07L318.49 38.07Q318.49 33.43 320.22 30.21Q321.95 27 324.92 25.33Q327.89 23.65 331.61 23.65L331.61 23.65Q335.66 23.65 338.88 25.46Q342.09 27.27 343.93 30.54Q345.76 33.80 345.76 38.07L345.76 38.07Q345.76 42.39 343.93 45.63Q342.09 48.87 338.88 50.71Q335.66 52.54 331.61 52.54ZM320.81 62.75L316.98 62.75L316.98 23.92L320.65 23.92L320.65 32.45L320.27 38.12L320.81 43.85L320.81 62.75ZM331.34 49.14L331.34 49.14Q334.37 49.14 336.74 47.76Q339.12 46.39 340.52 43.88Q341.93 41.36 341.93 38.07L341.93 38.07Q341.93 34.78 340.52 32.29Q339.12 29.81 336.74 28.40Q334.37 27 331.34 27L331.34 27Q328.32 27 325.92 28.40Q323.51 29.81 322.14 32.29Q320.76 34.78 320.76 38.07L320.76 38.07Q320.76 41.36 322.14 43.88Q323.51 46.39 325.92 47.76Q328.32 49.14 331.34 49.14ZM357.43 52.27L353.59 52.27L353.59 23.92L357.43 23.92L357.43 52.27ZM355.54 17.66L355.54 17.66Q354.35 17.66 353.54 16.85Q352.73 16.04 352.73 14.90L352.73 14.90Q352.73 13.77 353.54 12.99Q354.35 12.20 355.54 12.20L355.54 12.20Q356.72 12.20 357.53 12.96Q358.34 13.72 358.34 14.85L358.34 14.85Q358.34 16.04 357.56 16.85Q356.78 17.66 355.54 17.66ZM382.59 23.65L382.59 23.65Q386.05 23.65 388.67 24.97Q391.28 26.30 392.77 29.00Q394.25 31.70 394.25 35.80L394.25 35.80L394.25 52.27L390.42 52.27L390.42 36.18Q390.42 31.70 388.18 29.40Q385.94 27.11 381.89 27.11L381.89 27.11Q378.86 27.11 376.62 28.32Q374.38 29.54 373.17 31.83Q371.95 34.13 371.95 37.37L371.95 37.37L371.95 52.27L368.12 52.27L368.12 23.92L371.79 23.92L371.79 31.70L371.20 30.24Q372.55 27.16 375.52 25.41Q378.49 23.65 382.59 23.65ZM416.72 63.02L416.72 63.02Q412.83 63.02 409.27 61.88Q405.70 60.75 403.49 58.64L403.49 58.64L405.43 55.73Q407.43 57.51 410.37 58.56Q413.32 59.62 416.61 59.62L416.61 59.62Q422.01 59.62 424.55 57.10Q427.09 54.59 427.09 49.30L427.09 49.30L427.09 42.23L427.63 37.37L427.25 32.51L427.25 23.92L430.92 23.92L430.92 48.82Q430.92 56.16 427.33 59.59Q423.74 63.02 416.72 63.02ZM416.02 51.19L416.02 51.19Q411.97 51.19 408.73 49.44Q405.49 47.68 403.62 44.55Q401.76 41.42 401.76 37.37L401.76 37.37Q401.76 33.32 403.62 30.21Q405.49 27.11 408.73 25.38Q411.97 23.65 416.02 23.65L416.02 23.65Q419.80 23.65 422.82 25.22Q425.84 26.78 427.63 29.86Q429.41 32.94 429.41 37.37L429.41 37.37Q429.41 41.80 427.63 44.87Q425.84 47.95 422.82 49.57Q419.80 51.19 416.02 51.19ZM416.39 47.79L416.39 47.79Q419.53 47.79 421.96 46.47Q424.39 45.14 425.79 42.80Q427.19 40.45 427.19 37.37L427.19 37.37Q427.19 34.29 425.79 31.97Q424.39 29.65 421.96 28.32Q419.53 27 416.39 27L416.39 27Q413.32 27 410.86 28.32Q408.40 29.65 407.03 31.97Q405.65 34.29 405.65 37.37L405.65 37.37Q405.65 40.45 407.03 42.80Q408.40 45.14 410.86 46.47Q413.32 47.79 416.39 47.79Z" transform="translate(0, 0)"></path></g></svg></svg>