<svg width="77" height="39" viewBox="0 0 77 39" fill="none" xmlns="http://www.w3.org/2000/svg">
<rect width="70" height="38" fill="#011129"/>
<g filter="url(#filter0_b_324_4420)">
<rect width="77" height="38.0108" rx="2.67933" fill="#F2F5F6" fill-opacity="0.1"/>
<path d="M12.7847 28.5039V9.79731H18.8223C20.1498 9.79731 21.2581 10.0531 22.1471 10.5646C23.0423 11.07 23.7151 11.7581 24.1658 12.6289C24.6225 13.4997 24.8508 14.48 24.8508 15.57C24.8508 16.66 24.6255 17.6435 24.1749 18.5204C23.7243 19.3911 23.0544 20.0823 22.1654 20.5938C21.2763 21.0992 20.1711 21.3519 18.8497 21.3519H14.1V19.8174H18.804C19.7844 19.8174 20.5974 19.6347 21.2428 19.2694C21.8883 18.8979 22.3694 18.3925 22.686 17.7531C23.0088 17.1137 23.1701 16.386 23.1701 15.57C23.1701 14.7541 23.0088 14.0264 22.686 13.387C22.3694 12.7476 21.8853 12.2452 21.2337 11.8799C20.5882 11.5145 19.7692 11.3318 18.7766 11.3318H14.4928V28.5039H12.7847ZM31.1756 28.5039V9.79731H37.2132C38.5407 9.79731 39.649 10.0378 40.538 10.5189C41.4332 10.9939 42.1061 11.6546 42.5567 12.501C43.0134 13.3413 43.2417 14.3065 43.2417 15.3965C43.2417 16.4865 43.0134 17.4486 42.5567 18.2829C42.1061 19.1171 41.4362 19.7687 40.5472 20.2376C39.6581 20.7064 38.5559 20.9409 37.2406 20.9409H32.0982V19.379H37.195C38.1693 19.379 38.9792 19.2176 39.6246 18.8949C40.2762 18.5721 40.7603 18.1124 41.077 17.5156C41.3997 16.9188 41.5611 16.2125 41.5611 15.3965C41.5611 14.5805 41.3997 13.8681 41.077 13.2591C40.7542 12.6441 40.2671 12.1691 39.6155 11.8342C38.97 11.4993 38.154 11.3318 37.1676 11.3318H32.8837V28.5039H31.1756ZM39.4237 20.064L44.0273 28.5039H42.0543L37.4964 20.064H39.4237ZM65.0534 19.1506C65.0534 21.0992 64.7063 22.7951 64.0121 24.2383C63.3179 25.6754 62.3619 26.7897 61.144 27.5814C59.9322 28.3669 58.5377 28.7597 56.9606 28.7597C55.3834 28.7597 53.9859 28.3669 52.768 27.5814C51.5562 26.7897 50.6032 25.6754 49.9091 24.2383C49.221 22.7951 48.8769 21.0992 48.8769 19.1506C48.8769 17.202 49.221 15.5092 49.9091 14.0721C50.6032 12.6289 51.5593 11.5145 52.7772 10.729C53.995 9.93737 55.3895 9.54156 56.9606 9.54156C58.5377 9.54156 59.9322 9.93737 61.144 10.729C62.3619 11.5145 63.3179 12.6289 64.0121 14.0721C64.7063 15.5092 65.0534 17.202 65.0534 19.1506ZM63.391 19.1506C63.391 17.476 63.1108 16.042 62.5506 14.8485C61.9904 13.6488 61.2262 12.7324 60.258 12.0991C59.2898 11.4658 58.1906 11.1492 56.9606 11.1492C55.7366 11.1492 54.6405 11.4658 53.6723 12.0991C52.7041 12.7324 51.9368 13.6458 51.3705 14.8393C50.8103 16.0328 50.5302 17.4699 50.5302 19.1506C50.5302 20.8252 50.8103 22.2592 51.3705 23.4528C51.9307 24.6463 52.695 25.5627 53.6632 26.2021C54.6314 26.8354 55.7305 27.1521 56.9606 27.1521C58.1906 27.1521 59.2898 26.8354 60.258 26.2021C61.2323 25.5688 61.9995 24.6554 62.5598 23.4619C63.12 22.2623 63.397 20.8252 63.391 19.1506Z" fill="#F2F5F6"/>
<rect x="0.267933" y="0.267933" width="76.4641" height="37.4749" rx="2.4114" stroke="url(#paint0_linear_324_4420)" stroke-width="0.535866"/>
</g>
<defs>
<filter id="filter0_b_324_4420" x="-1.6076" y="-1.6076" width="80.2152" height="41.2269" filterUnits="userSpaceOnUse" color-interpolation-filters="sRGB">
<feFlood flood-opacity="0" result="BackgroundImageFix"/>
<feGaussianBlur in="BackgroundImageFix" stdDeviation="0.803799"/>
<feComposite in2="SourceAlpha" operator="in" result="effect1_backgroundBlur_324_4420"/>
<feBlend mode="normal" in="SourceGraphic" in2="effect1_backgroundBlur_324_4420" result="shape"/>
</filter>
<linearGradient id="paint0_linear_324_4420" x1="-2.07199e-06" y1="-3.21629" x2="82.6819" y2="46.78" gradientUnits="userSpaceOnUse">
<stop stop-color="#F2F5F6" stop-opacity="0.58"/>
<stop offset="0.53125" stop-color="#F2F5F6" stop-opacity="0.02"/>
<stop offset="1" stop-color="#F2F5F6" stop-opacity="0.73"/>
</linearGradient>
</defs>
</svg>
