<svg id="Capa_1" data-name="Capa 1" xmlns="http://www.w3.org/2000/svg" viewBox="0 0 490.6 210.06"><defs><style>.cls-1{fill:#03c4ff;}.cls-2{fill:#fff;}</style></defs><title>Crowd4Flipping</title><path class="cls-1" d="M490.6,144.17l-1.61,0H329.37c-1.9,0-1.68.26-1.68-1.73q0-41.11,0-82.23a2.61,2.61,0,0,0-1.12-2.38q-26.07-20-52.08-40l-11.4-8.75a5.09,5.09,0,0,1-.58-.46c-.44-.42-.82-.36-1.28,0-1.66,1.36-3.35,2.68-5,4L201.77,56q-7.56,6-15.12,12a2.09,2.09,0,0,0-.91,1.86q0,33.81,0,67.62c0,.2,0,.41,0,.62,0,.5.15.78.7.75.29,0,.58,0,.87,0H303.19c1.74,0,1.58.22,1.58-1.6q0-33.57,0-67.12a2.58,2.58,0,0,0-1.06-2.29q-27.3-21.69-54.56-43.45a5.55,5.55,0,0,1-1.26-1.15c1.57-1.26,3.15-2.51,4.72-3.78.35-.28.59-.13.87.09.77.63,1.54,1.24,2.32,1.86q27.26,21.65,54.52,43.29a2.38,2.38,0,0,1,1,2.07q0,38,0,75.91c0,.25,0,.5,0,.75,0,.48-.2.67-.67.65-.29,0-.58,0-.87,0h-129c-1.7,0-1.52.19-1.52-1.52q0-37.9,0-75.8a2.32,2.32,0,0,1,1-2.06Q220.52,32.82,260.75.82l.39-.3c.79-.62.65-.67,1.55,0l18.17,14Q307,34.57,333.13,54.62a2.41,2.41,0,0,1,1.08,2.15q0,40.24,0,80.5c0,1.89-.24,1.66,1.62,1.66H488.74c.62,0,1.24,0,1.86,0Z"/><path class="cls-1" d="M472.75,210.06a41.18,41.18,0,0,1-6.68-1.26,18.84,18.84,0,0,1-6.14-3.11c-.85-.68-.85-.68-.28-1.55s1.09-1.63,1.65-2.46a4.17,4.17,0,0,1,.4.21,19.86,19.86,0,0,0,16.61,3.73c4.28-.81,6.8-3.51,7.54-7.8a16.61,16.61,0,0,0,.26-2.33c0-1.6,0-3.2,0-4.75-.22-.15-.31,0-.38.06a14.1,14.1,0,0,1-10,5.52,17,17,0,0,1-12.14-2.84,14.82,14.82,0,0,1-6.4-11.49,15.34,15.34,0,0,1,14.26-17,17.58,17.58,0,0,1,8.16.95,13.81,13.81,0,0,1,5.88,4.2,1.51,1.51,0,0,0,.85.73c0-1,0-2,0-2.94s-.39-2,.21-2.61,1.66-.16,2.52-.17c1.5,0,1.37-.11,1.37,1.43q0,13.6,0,27.23a24.66,24.66,0,0,1-.4,5.42c-1.29,5.76-5,9.27-10.8,10.34a9,9,0,0,0-2.52.48Zm13.49-30.7c-.05-3.28-1.89-6.8-5.89-9.06a12.85,12.85,0,0,0-5.08-1.47c-6-.61-12.69,2.56-13.57,10.34-.61,5.44,2.06,10.66,7.63,12.6a14.64,14.64,0,0,0,5.49.72C481.5,192.2,486.23,187.29,486.24,179.36Z"/><path class="cls-2" d="M242.72,11.09c-1.55,1.23-3.08,2.42-4.58,3.65-.48.38-.75,0-1.07-.21L229.8,9a2.88,2.88,0,0,1-.39-.3c-.49-.53-.89-.48-1.46,0-2.26,1.79-4.58,3.53-6.87,5.29Q192.7,35.73,164.3,57.51a3.15,3.15,0,0,0-1.42,2.84q.06,41.1,0,82.22c0,1.77.23,1.55-1.6,1.55H1.59c-1.76,0-1.56.31-1.58-1.57,0-1,0-2.06,0-3.09,0-.42.15-.61.57-.59s.75,0,1.12,0H154.6c2.06,0,1.8.22,1.81-1.75q0-40.18,0-80.36a2.49,2.49,0,0,1,1.13-2.24q35-26.87,70-53.76c1.29-1,.92-1,2.23,0L242,10.47Z"/><path class="cls-1" d="M364.45,192.16a2.87,2.87,0,0,0-.15,1.39q0,7.24,0,14.49c0,.29,0,.58,0,.86,0,.57-.16.83-.77.81-1,0-2,0-3,0-.53,0-.75-.22-.72-.74,0-.25,0-.5,0-.75v-41.6c0-1.65-.16-1.49,1.56-1.5h1.85c.86,0,.87,0,.88.94,0,1.44,0,2.89,0,4.33,0,.2,0,.39.05.68.4-.18.53-.5.72-.74A13.9,13.9,0,0,1,375.23,165a16.73,16.73,0,0,1,7.77,1.1c5.71,2.36,8.79,6.74,9.68,12.75a18.43,18.43,0,0,1-.72,8.44A15.37,15.37,0,0,1,377.53,198a16.86,16.86,0,0,1-6.11-.78,14,14,0,0,1-6.08-4.11A3.06,3.06,0,0,0,364.45,192.16Zm12.43,1.89a11,11,0,0,0,9.65-5.59,13.41,13.41,0,0,0,.27-13.59,11,11,0,0,0-9.72-6.07,11.41,11.41,0,0,0-9.92,4.06,13.21,13.21,0,0,0-2.77,10.8C365.25,189.86,370,194,376.88,194.05Z"/><path class="cls-1" d="M188.17,191.8c-.54.12-.67.5-.88.77A13.84,13.84,0,0,1,176.71,198a16.48,16.48,0,0,1-9.31-2,15.4,15.4,0,0,1-7.9-12.44,17.58,17.58,0,0,1,1.42-9.56c2.65-5.57,7.15-8.46,13.23-9a15.76,15.76,0,0,1,7.41,1,13.76,13.76,0,0,1,5.53,4.06c.22.27.35.64.87.8V153.26c0-.33,0-.66,0-1a.42.42,0,0,1,.47-.45h3.46c.37,0,.51.2.51.54s0,.58,0,.87v43.08c0,1.52.14,1.37-1.41,1.38-.7,0-1.4,0-2.11,0-.52,0-.73-.17-.72-.71,0-1.49,0-3,0-4.46ZM188,181.45a12.81,12.81,0,0,0-2.58-8.21,11.57,11.57,0,0,0-11.21-4.33,11.19,11.19,0,0,0-9.59,7.85,14.55,14.55,0,0,0-.71,5.6A11.71,11.71,0,0,0,175.6,194a11.29,11.29,0,0,0,10.79-5.93A12.82,12.82,0,0,0,188,181.45Z"/><path class="cls-1" d="M322.32,192v16.21c0,.29,0,.58,0,.86s-.12.63-.55.63h-3.35c-.34,0-.55-.15-.54-.52s0-.58,0-.87v-42.1c0-1.07,0-1.08,1.09-1.09.83,0,1.66,0,2.48,0,.55,0,.72.22.71.74,0,1.28,0,2.56,0,3.84,0,.39-.11.81.12,1.15.25.1.35-.07.43-.19a14.07,14.07,0,0,1,11.66-5.74c5.16-.07,9.57,1.63,12.91,5.66A16.53,16.53,0,0,1,350.9,182a16.21,16.21,0,0,1-4.71,11.5,15.15,15.15,0,0,1-9.47,4.38,16,16,0,0,1-8.26-1.1,13.57,13.57,0,0,1-5.28-4c-.18-.23-.37-.44-.56-.66A2.6,2.6,0,0,0,322.32,192Zm12.06,2.05a11.58,11.58,0,0,0,9.42-4.39,13.86,13.86,0,0,0-.18-16.68,11.5,11.5,0,0,0-10.73-4.1c-5.06.6-8.36,3.42-10,8.22a13.72,13.72,0,0,0-.58,5.62C322.93,189.76,328,194.07,334.38,194.05Z"/><path class="cls-1" d="M103.77,165.12h3c1,0,1.06,0,1.41,1,1.24,3.32,2.46,6.65,3.69,10l5.7,15.43c.11.3.24.59.36.9.45-.21.45-.64.57-1,3.18-8.37,6.33-16.74,9.51-25.1.49-1.31.17-1.2,1.74-1.21.57,0,1.15,0,1.73,0a1,1,0,0,1,1.08.76c.76,2.13,1.58,4.25,2.38,6.37q3.57,9.49,7.15,19c.14.38.3.75.54,1.35.21-.5.36-.8.48-1.11q4.71-12.63,9.44-25.26c.4-1.07.4-1.08,1.58-1.08h2.68c.18.45-.06.73-.17,1q-5.76,15.27-11.56,30.53c-.4,1.08-.2,1-1.48,1-.75,0-1.49,0-2.23,0a1,1,0,0,1-1.18-.8c-1-2.66-2-5.31-3.05-8q-3.19-8.31-6.41-16.61a1.72,1.72,0,0,0-.43-.85c-.41.25-.43.7-.57,1.07q-4.6,11.88-9.17,23.76c-.09.24-.2.46-.27.7a.84.84,0,0,1-1,.7,20.52,20.52,0,0,0-2.48,0,1.15,1.15,0,0,1-1.35-.91c-.78-2.22-1.63-4.41-2.46-6.61q-4.51-12-9-23.95A1.74,1.74,0,0,1,103.77,165.12Z"/><path class="cls-1" d="M35.64,188.84l2.8,2.84c-.14.46-.57.74-.92,1.07A19.47,19.47,0,0,1,28,197.51a24.11,24.11,0,0,1-16.93-2.32c-6.78-3.8-10.4-9.7-11-17.42a21.49,21.49,0,0,1,18.33-23.4,24.54,24.54,0,0,1,13.73,1.45A18,18,0,0,1,38,159.71c.6.6.6.62,0,1.25l-2.29,2.26c-.22-.18-.38-.3-.53-.44a17.22,17.22,0,0,0-12.56-4.63,17.89,17.89,0,0,0-12.78,5.1A17.38,17.38,0,0,0,4.72,178.4a16.31,16.31,0,0,0,8.58,13c6.73,3.64,13.51,3.58,20-.71A27,27,0,0,0,35.64,188.84Z"/><path class="cls-1" d="M84.66,197.93a15.83,15.83,0,0,1-13.1-6,16.32,16.32,0,0,1-3.47-11,15.89,15.89,0,0,1,15-16,17.8,17.8,0,0,1,8.26,1.16,15,15,0,0,1,9,9.48,17.25,17.25,0,0,1-1,13.92c-2.73,5.21-7.23,7.84-13,8.39C85.73,198,85.19,197.93,84.66,197.93ZM72.6,181.4c0,.45,0,.91.06,1.36A11.66,11.66,0,0,0,84.47,194a11.26,11.26,0,0,0,10.27-5.31A12.59,12.59,0,0,0,96.65,183c.72-7.07-3.22-13.55-10.8-14.2A11.55,11.55,0,0,0,75.39,173,12.56,12.56,0,0,0,72.6,181.4Z"/><path class="cls-2" d="M206.77,182.29h17.85c.86,0,.88,0,.88-.92,0-2.51,0-5,0-7.55,0-.29,0-.58,0-.87,0-.55.23-.71.74-.7.95,0,1.9,0,2.85,0,.62,0,.77.24.76.81,0,2.47,0,4.95,0,7.43,0,.33,0,.66,0,1-.08.67.24.83.86.82,2.27,0,4.54,0,6.82,0,1,0,1,0,1,1v2c0,1,0,1-1,1h-6.57c-1.16,0-1.07,0-1.07,1.08,0,3.1,0,6.19,0,9.29,0,1,0,1-1,1-.83,0-1.65,0-2.48,0s-1,0-1-1v-9.29c0-1.14.06-1.06-1.08-1.06H202c-1.06,0-1,0-1.09-1.09a4.91,4.91,0,0,1,1.3-3.8q10.51-13,20.9-26.1a2.19,2.19,0,0,1,2.07-1c1.15.08,2.3,0,3.73,0Z"/><path class="cls-1" d="M246.42,176V155.45c0-1.07,0-1.09,1.09-1.09H275c1.13,0,1.14,0,1.14,1.16,0,.74,0,1.48,0,2.23,0,.41-.16.61-.58.6h-22.8c-.29,0-.58,0-.87,0-.88,0-.91,0-.92.9,0,2.4,0,4.79,0,7.19v7.67c0,1.23,0,1.24,1.21,1.24q9.85,0,19.7,0c1.73,0,1.52-.18,1.54,1.51,0,.58,0,1.15,0,1.73s-.13.79-.69.75a8.42,8.42,0,0,0-.87,0h-19.7c-1.17,0-1.18,0-1.19,1.14,0,1.57,0,3.14,0,4.7v11.27c0,1.23,0,1.24-1.18,1.24-.91,0-1.82,0-2.73,0-.47,0-.69-.16-.66-.65,0-.33,0-.66,0-1Z"/><path class="cls-1" d="M422.88,170.68a12.32,12.32,0,0,1,5.66-4.59,17,17,0,0,1,11.4-.49c4.46,1.33,7,4.48,8,8.93a20.82,20.82,0,0,1,.47,4.66v17.2a4.13,4.13,0,0,0,0,.5c.05.56-.14.83-.76.81-1,0-2.06,0-3.1,0-.41,0-.61-.16-.59-.58s0-.58,0-.87c0-5.57,0-11.14,0-16.71a16.5,16.5,0,0,0-.32-3.44,8.27,8.27,0,0,0-7.42-7.06,13.34,13.34,0,0,0-6.48.56,9.86,9.86,0,0,0-6.58,7.72,16.29,16.29,0,0,0-.31,3.69v15.22c0,.29,0,.58,0,.87s-.17.6-.59.6h-3.34c-.37,0-.51-.19-.51-.54s0-.58,0-.87V166.33c0-1.21-.15-1.21,1.21-1.21h2c1,0,1,0,1,1,0,1.2,0,2.4,0,3.59A1.23,1.23,0,0,0,422.88,170.68Z"/><path class="cls-1" d="M284.63,174.63V153.34c0-.28,0-.57,0-.86,0-.46.15-.68.63-.67h3.22c.41,0,.61.17.59.59s0,.58,0,.87v42.95c0,1.62.19,1.46-1.44,1.47-.78,0-1.57,0-2.35,0-.48,0-.68-.19-.65-.66,0-.29,0-.58,0-.87Z"/><path class="cls-1" d="M51.63,170.91a2.25,2.25,0,0,0,.83-1c2.64-3.71,6.43-4.94,10.77-5,.44,0,.57.21.56.61,0,1,0,2,0,3,0,.56-.25.69-.76.66a11.15,11.15,0,0,0-3.68.37c-4.1,1.12-6.32,4-7.21,8a16.8,16.8,0,0,0-.32,3.68v15c0,.28,0,.57,0,.86,0,.48-.19.66-.66.66-1,0-2.07,0-3.1,0-.57,0-.71-.25-.68-.75,0-.25,0-.5,0-.74v-29.7c0-1.49-.18-1.38,1.4-1.39h1.86c1,0,1,0,1,.95C51.64,167.63,51.63,169.2,51.63,170.91Z"/><path class="cls-2" d="M235.18,82.07c-1.9,0-3.8,0-5.7,0-.64,0-.85-.17-.84-.83,0-3.76,0-7.52,0-11.27,0-.84,0-.86.91-.86q5.58,0,11.15,0c.94,0,1,0,1,.95v11c0,1,0,1-1.05,1C238.81,82.08,237,82.07,235.18,82.07Z"/><path class="cls-2" d="M228.65,88.06a1.2,1.2,0,0,1,.79-.17c3.76,0,7.52,0,11.28,0,.94,0,1,0,1,.94v11c0,1,0,1-.92,1H229.48c-.4,0-.84.09-.83-.57C228.66,96.18,228.65,92.1,228.65,88.06Z"/><path class="cls-2" d="M261.87,75.6c0,1.9,0,3.8,0,5.7,0,.58-.16.78-.76.78-3.8,0-7.61,0-11.41,0-.54,0-.81-.08-.81-.73,0-3.84,0-7.68,0-11.52,0-.53.16-.72.7-.71,3.84,0,7.69,0,11.53,0,.64,0,.75.25.74.8C261.85,71.8,261.87,73.7,261.87,75.6Z"/><path class="cls-2" d="M261.87,94.42c0,1.86,0,3.71,0,5.57,0,.59-.09.87-.8.87q-5.68-.06-11.39,0c-.7,0-.8-.27-.8-.87,0-3.75,0-7.5,0-11.26,0-.84,0-.86.91-.86q5.56,0,11.15,0c.89,0,.9,0,.91,1Z"/><path class="cls-1" d="M406.23,181.49q0,7.37,0,14.73v.86c0,.4-.15.62-.58.61H402.3c-.36,0-.53-.16-.53-.51s0-.58,0-.87V166.48c0-1.46-.12-1.36,1.31-1.36h2.48c.46,0,.7.17.68.65,0,.29,0,.58,0,.87Q406.24,174.07,406.23,181.49Z"/><path class="cls-1" d="M301.25,181.32V166.59c0-.29,0-.58,0-.87s.13-.55.49-.55h3.47a.42.42,0,0,1,.47.45c0,.29,0,.58,0,.87v29.84c0,1.51.13,1.35-1.43,1.36-.78,0-1.57,0-2.35,0-.47,0-.7-.17-.67-.65,0-.29,0-.58,0-.87Z"/><path class="cls-1" d="M303.56,151.81a3,3,0,0,1,3.17,3.09,3.11,3.11,0,0,1-3.25,3.16,3.13,3.13,0,1,1,.08-6.25Z"/><path class="cls-1" d="M404.07,151.81a3.14,3.14,0,0,1,3.21,3.08,3.19,3.19,0,0,1-3.28,3.17,3.13,3.13,0,1,1,.07-6.25Z"/></svg>