<svg viewBoxSize="575" data-root-id="3878021312597" xmlns="http://www.w3.org/2000/svg" xmlns:xlink="http://www.w3.org/1999/xlink" version="1.1" id="Layer_1" x="0.686279" y="0" viewBox="687 660.5400390625 724 598.2698974609375" xml:space="preserve" height="473.1845086474945" width="572.627197265625" preserveAspectRatio="xMinYMin" zoom="1" editorType="buyer" data-layer-role="icon" style="position: absolute; height: 473.185px; width: 572.627px; top: 0px; left: 0.686279px;"><linearGradient id="SVGID_1_" gradientUnits="userSpaceOnUse" x1="1110.599" y1="1142.9341" x2="929.8803" y2="646.4135" name="Layer %{number}" zoom="1" data-layer-id="3174509312598"><stop offset="0" style="stop-color: rgb(157, 207, 67);"></stop><stop offset="1" style="stop-color: rgb(10, 150, 71);"></stop></linearGradient><path class="st0" d="M1225.85,913.18c-7.32-1.53-19.36-3.61-34.36-4.62c-0.1,0.13-0.17,0.27-0.28,0.4l-5.64,6.39  c-2.11,2.39-5.64,2.85-8.26,1.09l-8.73-5.64c-3.15-2.13-3.71-5.85-1.16-8.71l7.73-6.49c2.19-2.46,5.89-2.84,8.49-0.88l5.31,3.99  c0.68,0.51,1.44,0.85,2.28,0.99c1.99,0.33,4.35,0.73,6.99,1.19c4.66,0.81,7.95-4.39,5.29-8.31c-30.29-44.67-70.43-40.9-100.12-28.75  c7.05-18.98,11.91-40.63,13.06-65.21l2.29-48.94l-44.8,19.83c-0.67,0.29-14.99,6.69-33.02,18.58c-6.42-30.23-18.7-60.87-36.55-91.18  l-21.42-36.37l-27.59,31.94c-1.26,1.45-29.7,34.91-41.3,96.66c-57.71-46.18-120.25-60.9-122.98-61.53l-51.73-11.82l16.13,50.55  c14.83,46.49,35.67,86.67,62.02,119.56c-6.75,1.16-13.35,2.54-19.69,4.14c-49.1,12.34-75.75,34.12-78.62,36.56L687,953.89  l36.18,21.73c30.04,18.05,60.54,30.54,90.79,37.18c-12.34,18.25-18.99,32.84-19.3,33.52l-20.22,44.62l48.96-1.86  c15.32-0.58,30.35-2.7,44.68-6.26c-22.63,27.29-48.08,66.69-60.67,116.2l-15.21,59.79l50.52-35.41  c2.64-1.85,58.07-41.52,92.74-125.15c21.62,1.17,46.89-3.37,68.26-8.76c146.08-33.87,187.2-140.88,187.2-140.88  c14.63-18.02,49-9.22,49-9.22L1411,977.6C1325.53,938.03,1253.39,919.43,1225.85,913.18z M738.78,949.66  c0,0,45.13-38.3,130.32-37.68c0,0,23.76,20.47,58.47,35.03c0,0-61.12,2.71-105.32,0.53c0,0,50.34,18.35,142.53,10.56  C964.77,958.1,874.54,1031.23,738.78,949.66z M822.25,1058.82c0,0,15.05-33.22,42.49-60.42c0,0,22.96,3.45,50.57-5.12l-34.02,27.3  c0,0,34.83-12.76,93.39-55.48C974.68,965.1,931.56,1054.66,822.25,1058.82z M838.23,814.47l126.1,132.2c0,0-124.62-15.95-180-189.56  c0,0,157.32,35.96,192.45,182.17C976.78,939.28,887.6,845.66,838.23,814.47z M975.42,795.7c1.79,44.22-1.45,105.31-1.45,105.31  c-14.25-34.84-34.52-58.77-34.52-58.77c0.12-85.2,38.82-129.99,38.82-129.99c80.38,136.47,6.46,226.06,6.46,226.06  C993.33,846.2,975.42,795.7,975.42,795.7z M991.15,948.78c43.23-58.18,56.29-92.9,56.29-92.9l-29.47,37.13  c8.81-27.53,7.44-53.87,7.44-53.87c27.44-27.2,60.79-41.96,60.79-41.96C1081.08,906.45,991.15,948.78,991.15,948.78z" name="Layer %{number}" zoom="1" data-layer-id="4215268312598" style="fill: rgb(29, 82, 16); fill-opacity: 1;"></path></svg>