<svg width="1266" height="412" viewBox="0 0 1266 412" fill="none" xmlns="http://www.w3.org/2000/svg">
<g clip-path="url(#clip0_340_3057)">
<g opacity="0.5">
<path d="M-1545 288.021C-1034.5 -117.454 -524 -169.345 -13.5 132.348C497 434.04 1007.5 485.931 1518 288.021" stroke="url(#paint0_linear_340_3057)" stroke-width="2" stroke-linecap="round"/>
<path opacity="0.96" d="M-1545 268.111C-1034.5 -124.089 -524 -169.343 -13.5 132.35C497 434.042 1007.5 479.296 1518 268.111" stroke="url(#paint1_linear_340_3057)" stroke-width="2" stroke-linecap="round"/>
<path opacity="0.92" d="M-1545 248.197C-1034.5 -130.729 -524 -169.345 -13.5 132.347C497 434.04 1007.5 472.656 1518 248.197" stroke="url(#paint2_linear_340_3057)" stroke-width="2" stroke-linecap="round"/>
<path opacity="0.89" d="M-1545 228.287C-1034.5 -137.364 -524 -169.343 -13.5 132.349C497 434.041 1007.5 466.021 1518 228.287" stroke="url(#paint3_linear_340_3057)" stroke-width="2" stroke-linecap="round"/>
<path opacity="0.85" d="M-1545 208.375C-1034.5 -144.001 -524 -169.344 -13.5 132.349C497 434.041 1007.5 459.383 1518 208.375" stroke="url(#paint4_linear_340_3057)" stroke-width="2" stroke-linecap="round"/>
<path opacity="0.81" d="M-1545 188.467C-1034.5 -150.635 -524 -169.34 -13.5 132.353C497 434.045 1007.5 452.75 1518 188.467" stroke="url(#paint5_linear_340_3057)" stroke-width="2" stroke-linecap="round"/>
<path opacity="0.77" d="M-1545 168.551C-1034.5 -157.277 -524 -169.344 -13.5 132.348C497 434.04 1007.5 446.108 1518 168.551" stroke="url(#paint6_linear_340_3057)" stroke-width="2" stroke-linecap="round"/>
<path opacity="0.73" d="M-1545 148.642C-1034.5 -163.911 -524 -169.342 -13.5 132.35C497 434.043 1007.5 439.473 1518 148.642" stroke="url(#paint7_linear_340_3057)" stroke-width="2" stroke-linecap="round"/>
<path opacity="0.7" d="M-1545 128.73C-1034.5 -170.549 -524 -169.343 -13.5 132.35C497 434.042 1007.5 432.835 1518 128.73" stroke="url(#paint8_linear_340_3057)" stroke-width="2" stroke-linecap="round"/>
<path opacity="0.66" d="M-1545 108.816C-1034.5 -177.188 -524 -169.344 -13.5 132.348C497 434.041 1007.5 426.197 1518 108.816" stroke="url(#paint9_linear_340_3057)" stroke-width="2" stroke-linecap="round"/>
<path opacity="0.62" d="M-1545 88.9059C-1034.5 -183.824 -524 -169.343 -13.5 132.35C497 434.042 1007.5 419.561 1518 88.9059" stroke="url(#paint10_linear_340_3057)" stroke-width="2" stroke-linecap="round"/>
<path opacity="0.58" d="M-1545 68.9957C-1034.5 -190.46 -524 -169.341 -13.5 132.351C497 434.043 1007.5 412.925 1518 68.9957" stroke="url(#paint11_linear_340_3057)" stroke-width="2" stroke-linecap="round"/>
<path opacity="0.54" d="M-1545 49.0805C-1034.5 -197.1 -524 -169.345 -13.5 132.348C497 434.04 1007.5 406.284 1518 49.0805" stroke="url(#paint12_linear_340_3057)" stroke-width="2" stroke-linecap="round"/>
<path opacity="0.51" d="M-1545 29.1689C-1034.5 -203.737 -524 -169.345 -13.5 132.348C497 434.04 1007.5 399.647 1518 29.1689" stroke="url(#paint13_linear_340_3057)" stroke-width="2" stroke-linecap="round"/>
<path opacity="0.47" d="M-1545 9.26008C-1034.5 -210.372 -524 -169.342 -13.5 132.351C497 434.043 1007.5 393.013 1518 9.26008" stroke="url(#paint14_linear_340_3057)" stroke-width="2" stroke-linecap="round"/>
<path opacity="0.43" d="M-1545 -10.6528C-1034.5 -217.01 -524 -169.343 -13.5 132.349C497 434.042 1007.5 386.374 1518 -10.6528" stroke="url(#paint15_linear_340_3057)" stroke-width="2" stroke-linecap="round"/>
<path opacity="0.39" d="M-1545 -30.5617C-1034.5 -223.645 -524 -169.34 -13.5 132.352C497 434.044 1007.5 379.74 1518 -30.5617" stroke="url(#paint16_linear_340_3057)" stroke-width="2" stroke-linecap="round"/>
<path opacity="0.35" d="M-1545 -50.4754C-1034.5 -230.284 -524 -169.342 -13.5 132.35C497 434.042 1007.5 373.101 1518 -50.4754" stroke="url(#paint17_linear_340_3057)" stroke-width="2" stroke-linecap="round"/>
<path opacity="0.32" d="M-1545 -70.3914C-1034.5 -236.926 -524 -169.347 -13.5 132.346C497 434.038 1007.5 366.459 1518 -70.3914" stroke="url(#paint18_linear_340_3057)" stroke-width="2" stroke-linecap="round"/>
<path opacity="0.28" d="M-1545 -90.2954C-1034.5 -243.555 -524 -169.339 -13.5 132.354C497 434.046 1007.5 359.83 1518 -90.2954" stroke="url(#paint19_linear_340_3057)" stroke-width="2" stroke-linecap="round"/>
<path opacity="0.24" d="M-1545 -110.211C-1034.5 -250.197 -524 -169.343 -13.5 132.349C497 434.042 1007.5 353.188 1518 -110.211" stroke="url(#paint20_linear_340_3057)" stroke-width="2" stroke-linecap="round"/>
<path opacity="0.2" d="M-1545 -130.123C-1034.5 -256.834 -524 -169.343 -13.5 132.349C497 434.042 1007.5 346.551 1518 -130.123" stroke="url(#paint21_linear_340_3057)" stroke-width="2" stroke-linecap="round"/>
<path opacity="0.16" d="M-1545 -150.036C-1034.5 -263.472 -524 -169.344 -13.5 132.348C497 434.041 1007.5 339.913 1518 -150.036" stroke="url(#paint22_linear_340_3057)" stroke-width="2" stroke-linecap="round"/>
<path opacity="0.13" d="M-1545 -169.943C-1034.5 -270.105 -524 -169.339 -13.5 132.353C497 434.045 1007.5 333.28 1518 -169.943" stroke="url(#paint23_linear_340_3057)" stroke-width="2" stroke-linecap="round"/>
<path opacity="0.09" d="M-1545 -189.858C-1034.5 -276.745 -524 -169.343 -13.5 132.35C497 434.042 1007.5 326.64 1518 -189.858" stroke="url(#paint24_linear_340_3057)" stroke-width="2" stroke-linecap="round"/>
</g>
</g>
<defs>
<linearGradient id="paint0_linear_340_3057" x1="151605" y1="-60.7148" x2="151605" y2="46572.7" gradientUnits="userSpaceOnUse">
<stop stop-color="#0091FF"/>
<stop offset="1" stop-color="#F42A8B"/>
</linearGradient>
<linearGradient id="paint1_linear_340_3057" x1="151605" y1="-64.4062" x2="151605" y2="46231.1" gradientUnits="userSpaceOnUse">
<stop stop-color="#0091FF"/>
<stop offset="1" stop-color="#F42A8B"/>
</linearGradient>
<linearGradient id="paint2_linear_340_3057" x1="151605" y1="-68.2461" x2="151605" y2="45939.4" gradientUnits="userSpaceOnUse">
<stop stop-color="#0091FF"/>
<stop offset="1" stop-color="#F42A8B"/>
</linearGradient>
<linearGradient id="paint3_linear_340_3057" x1="151605" y1="-72.2344" x2="151605" y2="45695.9" gradientUnits="userSpaceOnUse">
<stop stop-color="#0091FF"/>
<stop offset="1" stop-color="#F42A8B"/>
</linearGradient>
<linearGradient id="paint4_linear_340_3057" x1="151605" y1="-76.3867" x2="151605" y2="45499" gradientUnits="userSpaceOnUse">
<stop stop-color="#0091FF"/>
<stop offset="1" stop-color="#F42A8B"/>
</linearGradient>
<linearGradient id="paint5_linear_340_3057" x1="151605" y1="-80.707" x2="151605" y2="45347.8" gradientUnits="userSpaceOnUse">
<stop stop-color="#0091FF"/>
<stop offset="1" stop-color="#F42A8B"/>
</linearGradient>
<linearGradient id="paint6_linear_340_3057" x1="151605" y1="-85.2188" x2="151605" y2="45241.1" gradientUnits="userSpaceOnUse">
<stop stop-color="#0091FF"/>
<stop offset="1" stop-color="#F42A8B"/>
</linearGradient>
<linearGradient id="paint7_linear_340_3057" x1="151605" y1="-89.918" x2="151605" y2="45178.6" gradientUnits="userSpaceOnUse">
<stop stop-color="#0091FF"/>
<stop offset="1" stop-color="#F42A8B"/>
</linearGradient>
<linearGradient id="paint8_linear_340_3057" x1="151605" y1="-94.8281" x2="151605" y2="45159.7" gradientUnits="userSpaceOnUse">
<stop stop-color="#0091FF"/>
<stop offset="1" stop-color="#F42A8B"/>
</linearGradient>
<linearGradient id="paint9_linear_340_3057" x1="151605" y1="-99.9609" x2="151605" y2="45184.5" gradientUnits="userSpaceOnUse">
<stop stop-color="#0091FF"/>
<stop offset="1" stop-color="#F42A8B"/>
</linearGradient>
<linearGradient id="paint10_linear_340_3057" x1="151605" y1="-105.328" x2="151605" y2="45253" gradientUnits="userSpaceOnUse">
<stop stop-color="#0091FF"/>
<stop offset="1" stop-color="#F42A8B"/>
</linearGradient>
<linearGradient id="paint11_linear_340_3057" x1="151605" y1="-110.949" x2="151605" y2="45365.7" gradientUnits="userSpaceOnUse">
<stop stop-color="#0091FF"/>
<stop offset="1" stop-color="#F42A8B"/>
</linearGradient>
<linearGradient id="paint12_linear_340_3057" x1="151605" y1="-116.848" x2="151605" y2="45523.3" gradientUnits="userSpaceOnUse">
<stop stop-color="#0091FF"/>
<stop offset="1" stop-color="#F42A8B"/>
</linearGradient>
<linearGradient id="paint13_linear_340_3057" x1="151605" y1="-123.035" x2="151605" y2="45726.7" gradientUnits="userSpaceOnUse">
<stop stop-color="#0091FF"/>
<stop offset="1" stop-color="#F42A8B"/>
</linearGradient>
<linearGradient id="paint14_linear_340_3057" x1="151605" y1="-129.535" x2="151605" y2="45977.1" gradientUnits="userSpaceOnUse">
<stop stop-color="#0091FF"/>
<stop offset="1" stop-color="#F42A8B"/>
</linearGradient>
<linearGradient id="paint15_linear_340_3057" x1="151605" y1="-136.379" x2="151605" y2="46276.1" gradientUnits="userSpaceOnUse">
<stop stop-color="#0091FF"/>
<stop offset="1" stop-color="#F42A8B"/>
</linearGradient>
<linearGradient id="paint16_linear_340_3057" x1="151605" y1="-143.586" x2="151605" y2="46625.6" gradientUnits="userSpaceOnUse">
<stop stop-color="#0091FF"/>
<stop offset="1" stop-color="#F42A8B"/>
</linearGradient>
<linearGradient id="paint17_linear_340_3057" x1="151605" y1="-151.195" x2="151605" y2="47027.7" gradientUnits="userSpaceOnUse">
<stop stop-color="#0091FF"/>
<stop offset="1" stop-color="#F42A8B"/>
</linearGradient>
<linearGradient id="paint18_linear_340_3057" x1="151605" y1="-159.238" x2="151605" y2="47485.2" gradientUnits="userSpaceOnUse">
<stop stop-color="#0091FF"/>
<stop offset="1" stop-color="#F42A8B"/>
</linearGradient>
<linearGradient id="paint19_linear_340_3057" x1="151605" y1="-167.738" x2="151605" y2="48001.1" gradientUnits="userSpaceOnUse">
<stop stop-color="#0091FF"/>
<stop offset="1" stop-color="#F42A8B"/>
</linearGradient>
<linearGradient id="paint20_linear_340_3057" x1="151605" y1="-176.762" x2="151605" y2="48578.9" gradientUnits="userSpaceOnUse">
<stop stop-color="#0091FF"/>
<stop offset="1" stop-color="#F42A8B"/>
</linearGradient>
<linearGradient id="paint21_linear_340_3057" x1="151605" y1="-186.34" x2="151605" y2="49222.8" gradientUnits="userSpaceOnUse">
<stop stop-color="#0091FF"/>
<stop offset="1" stop-color="#F42A8B"/>
</linearGradient>
<linearGradient id="paint22_linear_340_3057" x1="151605" y1="-196.531" x2="151605" y2="49937.6" gradientUnits="userSpaceOnUse">
<stop stop-color="#0091FF"/>
<stop offset="1" stop-color="#F42A8B"/>
</linearGradient>
<linearGradient id="paint23_linear_340_3057" x1="151605" y1="-207.391" x2="151605" y2="50728.7" gradientUnits="userSpaceOnUse">
<stop stop-color="#0091FF"/>
<stop offset="1" stop-color="#F42A8B"/>
</linearGradient>
<linearGradient id="paint24_linear_340_3057" x1="151605" y1="-219" x2="151605" y2="51602.5" gradientUnits="userSpaceOnUse">
<stop stop-color="#0091FF"/>
<stop offset="1" stop-color="#F42A8B"/>
</linearGradient>
<clipPath id="clip0_340_3057">
<rect width="1266" height="412" fill="white"/>
</clipPath>
</defs>
</svg>
